<svg width="65" height="65" viewBox="0 0 65 65" fill="none" xmlns="http://www.w3.org/2000/svg">
<path d="M29.7917 45.351C29.7917 44.2298 30.7017 43.3198 31.823 43.3198H57.5522C58.6734 43.3198 59.5834 44.2298 59.5834 45.351C59.5834 46.4723 58.6734 47.3823 57.5522 47.3823H31.823C30.7017 47.3823 29.7917 46.4723 29.7917 45.351ZM5.41675 31.8094C5.41675 30.6881 6.32675 29.7781 7.448 29.7781H57.5522C58.6734 29.7781 59.5834 30.6881 59.5834 31.8094C59.5834 32.9306 58.6734 33.8406 57.5522 33.8406H7.448C6.32675 33.8406 5.41675 32.9306 5.41675 31.8094ZM16.2501 18.2677C16.2501 17.1465 17.1601 16.2365 18.2813 16.2365H57.5522C58.6734 16.2365 59.5834 17.1465 59.5834 18.2677C59.5834 19.389 58.6734 20.299 57.5522 20.299H18.2813C17.1601 20.299 16.2501 19.389 16.2501 18.2677Z" fill="#D7DCE3"/>
</svg>
